<svg width="22" height="15" viewBox="0 0 22 15" fill="none" xmlns="http://www.w3.org/2000/svg">
<path d="M17.662 6.4353H4.32865C3.84254 6.4353 3.42587 6.82882 3.42587 7.33808V8.33345H18.5416V7.33808C18.5648 6.82882 18.1481 6.4353 17.662 6.4353Z" fill="#FE753F"/>
<path d="M20.7407 0H1.25C0.555556 0 0 0.555555 0 1.25V7.10648C0 7.80093 0.555556 8.35648 1.25 8.35648H2.38426V7.36111C2.38426 6.27315 3.26389 5.41667 4.3287 5.41667H17.662C18.75 5.41667 19.6065 6.2963 19.6065 7.36111V8.35648H20.7407C21.4352 8.35648 21.9907 7.80093 21.9907 7.10648V1.22685C21.9907 0.555555 21.4352 0 20.7407 0ZM15.8333 3.00926H14.5602C14.2593 3.00926 14.0278 2.77778 14.0278 2.47685C14.0278 2.17593 14.2593 1.94444 14.5602 1.94444H15.8333C16.1343 1.94444 16.3657 2.17593 16.3657 2.47685C16.3426 2.75463 16.1111 3.00926 15.8333 3.00926ZM19.0741 3.00926H17.8009C17.5 3.00926 17.2685 2.77778 17.2685 2.47685C17.2685 2.17593 17.5 1.94444 17.8009 1.94444H19.0741C19.375 1.94444 19.6065 2.17593 19.6065 2.47685C19.6065 2.75463 19.375 3.00926 19.0741 3.00926Z" fill="#FE753F"/>
<path d="M13.1018 10.926L13.3333 10.5325C13.4953 10.2779 13.4027 9.93064 13.1481 9.7686C12.8935 9.60656 12.5463 9.69916 12.3842 9.95379L12.1527 10.3473C11.6898 11.1112 11.7592 12.0834 12.3148 12.7547C12.5463 13.0325 12.5926 13.426 12.4537 13.7501L12.2453 14.213C12.1296 14.4908 12.2685 14.8149 12.5463 14.9538C12.6157 14.9769 12.6851 15.0001 12.7546 15.0001C12.9629 15.0001 13.1713 14.8612 13.2639 14.6529L13.4722 14.1899C13.7731 13.4723 13.6574 12.6621 13.1713 12.0603C12.9166 11.7362 12.8935 11.2964 13.1018 10.926Z" fill="#FE753F"/>
<path d="M9.60642 10.926L9.83791 10.5325C9.99994 10.2779 9.90735 9.93064 9.65272 9.7686C9.39809 9.60656 9.05087 9.69916 8.88883 9.95379L8.65735 10.3473C8.19439 11.1112 8.26383 12.0834 8.81939 12.7547C9.05087 13.0325 9.09717 13.426 8.95828 13.7501L8.74994 14.213C8.6342 14.4908 8.77309 14.8149 9.05087 14.9538C9.12031 14.9769 9.18976 15.0001 9.2592 15.0001C9.46754 15.0001 9.67587 14.8612 9.76846 14.6529L9.97679 14.1899C10.2777 13.4723 10.162 12.6621 9.67587 12.0603C9.42124 11.7362 9.39809 11.2964 9.60642 10.926Z" fill="#FE753F"/>
<path d="M16.5972 10.926L16.8287 10.5325C16.9907 10.2779 16.8981 9.93064 16.6435 9.7686C16.3889 9.60656 16.0417 9.69916 15.8796 9.95379L15.6481 10.3473C15.1852 11.1112 15.2546 12.0834 15.8102 12.7547C16.0417 13.0325 16.0879 13.426 15.9491 13.7501L15.7407 14.213C15.625 14.4908 15.7639 14.8149 16.0417 14.9538C16.1111 14.9769 16.1805 15.0001 16.25 15.0001C16.4583 15.0001 16.6667 14.8612 16.7592 14.6529L16.9676 14.1899C17.2685 13.4723 17.1528 12.6621 16.6667 12.0603C16.412 11.7362 16.3889 11.2964 16.5972 10.926Z" fill="#FE753F"/>
<path d="M6.11119 10.926L6.34267 10.5325C6.5047 10.2779 6.41211 9.93064 6.15748 9.7686C5.90285 9.60656 5.55563 9.69916 5.39359 9.95379L5.16211 10.3473C4.69915 11.1112 4.76859 12.0834 5.32415 12.7547C5.55563 13.0325 5.60193 13.426 5.46304 13.7501L5.2547 14.213C5.13896 14.4908 5.27785 14.8149 5.55563 14.9538C5.62507 14.9769 5.69452 15.0001 5.76396 15.0001C5.9723 15.0001 6.18063 14.8612 6.27322 14.6529L6.48156 14.1899C6.78248 13.4723 6.66674 12.6621 6.18063 12.0603C5.926 11.7362 5.90285 11.2964 6.11119 10.926Z" fill="#FE753F"/>
</svg>
