<svg width="24" height="14" viewBox="0 0 24 14" fill="none" xmlns="http://www.w3.org/2000/svg">
<path d="M5.59651 5.36975V6.95799H11.3696V0H4.53769C3.70575 0 3.02508 0.680673 3.02508 1.51261V3.37815H3.5797C4.71416 3.37815 5.59651 4.26051 5.59651 5.36975Z" fill="#FE753F"/>
<path d="M18.3529 5.36975C18.3529 4.26051 19.2605 3.37815 20.3445 3.37815H20.8991V1.51261C20.8991 0.680673 20.2185 0 19.3865 0H12.5798V6.95799H18.3529V5.36975Z" fill="#FE753F"/>
<path d="M21.958 4.56305H20.3445C19.8908 4.56305 19.5378 4.91599 19.5378 5.36978V7.916C19.5378 8.06726 19.437 8.1681 19.2857 8.1681H4.66387C4.51261 8.1681 4.41177 8.06726 4.41177 7.916V5.36978C4.41177 4.91599 4.05883 4.56305 3.60504 4.56305H1.9916C0.907563 4.56305 0 5.44541 0 6.55465C0 7.63869 0.882353 8.54625 1.9916 8.54625V10.5631C1.9916 11.3698 2.62185 12.0252 3.40336 12.0505V12.8572C3.40336 13.1849 3.68067 13.4622 4.00841 13.4622H5.39496C5.72269 13.4622 6 13.1849 6 12.8572V12.0505H18V12.8572C18 13.1849 18.2773 13.4622 18.6051 13.4622H19.9916C20.3193 13.4622 20.5967 13.1849 20.5967 12.8572V12.0252C21.3782 11.9748 22.0084 11.3446 22.0084 10.5378V8.52104C23.0925 8.52104 24 7.63869 24 6.52944C23.9496 5.44541 23.0672 4.56305 21.958 4.56305Z" fill="#FE753F"/>
</svg>
