<svg width="28" height="13" viewBox="0 0 28 13" fill="none" xmlns="http://www.w3.org/2000/svg">
<path d="M20.5489 5.93973C22.0045 6.11011 23.3223 5.06816 23.4927 3.61243C23.6629 2.15711 22.621 0.839102 21.1654 0.668845C19.7099 0.498469 18.3919 1.54042 18.222 2.99603C18.0513 4.45165 19.0935 5.76947 20.5489 5.93973Z" fill="#FE753F"/>
<path d="M8.992 3.7818L12.939 2.99361L13.7877 4.35862L10.7127 7.28269C11.1875 7.40268 11.6435 7.58128 12.0674 7.81493C12.2707 7.927 12.4613 8.05645 12.6455 8.18152C12.9422 8.38307 13.2215 8.57704 13.4982 8.65303C13.7171 8.71311 14.0039 8.71654 14.0221 8.71761C14.412 8.71424 14.7554 8.60578 15.106 8.37721C16.0178 7.7827 17.1369 7.16684 18.5249 7.10587C18.6274 7.10137 18.7309 7.09907 18.8326 7.09907C19.2779 7.09907 19.7133 7.14283 20.1296 7.22763C19.844 6.77162 14.7551 0.604916 14.7551 0.604916L14.621 0.444476C14.2926 0.0541669 13.7431 -0.109112 13.2364 0.0765805L8.44403 1.83433C7.98199 2.00329 7.69913 2.48822 7.79836 2.98557C7.90812 3.53496 8.44255 3.89144 8.992 3.7818Z" fill="#FE753F"/>
<path d="M26.4379 9.91291C25.7846 10.2058 25.2977 10.3253 24.7569 10.3253C24.5439 10.3253 24.3235 10.3062 24.0831 10.2668C23.2825 10.1241 22.7118 9.66175 22.1598 9.21461C21.8203 8.93962 21.4997 8.67983 21.1288 8.48858C20.4575 8.14055 19.6501 7.95669 18.7933 7.95669C18.7045 7.95669 18.6141 7.95876 18.5247 7.96272C17.3532 8.01411 16.4033 8.53529 15.5512 9.09083C15.0513 9.41692 14.4583 9.5734 13.9201 9.5734C13.7579 9.5734 13.4275 9.5378 13.2131 9.47594C12.8017 9.35731 12.449 9.11762 12.1078 8.88604C11.9326 8.76694 11.767 8.65457 11.5998 8.56238C10.8837 8.16758 10.0568 7.95888 9.20851 7.95888H9.1913C8.0037 7.96278 6.92964 8.32701 6.08539 9.01195C4.90979 9.96601 4.13396 10.2341 3.91279 10.2719C3.91279 10.2719 3.72727 10.3204 3.32892 10.3204C2.56581 10.3204 1.92807 10.0704 1.28796 9.79203C0.838277 9.59646 0.414496 9.48422 0 9.45151C0.0803682 9.49794 0.157306 9.54643 0.231938 9.59764C0.556841 9.82414 0.824262 10.0995 1.08275 10.3657C1.22113 10.5081 1.35177 10.6427 1.49057 10.7705C2.03398 11.2704 3.15553 11.8613 4.44639 11.8613C5.1014 11.8613 5.73518 11.7189 6.32993 11.4378C6.50491 11.3552 6.67529 11.2567 6.8556 11.1526C7.15478 10.9799 7.46555 10.8058 7.80991 10.6899C8.24445 10.5434 8.91898 10.5919 8.91898 10.5919C9.61834 10.6366 10.1421 10.9671 10.5202 11.25C11.6722 12.1117 12.7591 12.5184 13.9407 12.5299L14.0009 12.5302C14.8139 12.5302 15.5578 12.3735 16.2119 12.0645C16.5166 11.9205 16.8066 11.7086 17.1139 11.4842C17.6908 11.0627 18.2875 10.6268 19.056 10.5967C19.1017 10.5948 19.1481 10.5939 19.1953 10.5939C19.6161 10.5939 20.2496 10.667 20.8785 11.0152C21.6354 11.4359 22.551 11.8657 23.6075 11.8657C23.7611 11.8657 23.9178 11.8567 24.0733 11.8391C25.0458 11.7291 25.8677 11.3705 26.5164 10.7735C26.6555 10.6455 26.7864 10.5105 26.9251 10.3676C27.2207 10.0631 27.5264 9.74803 27.9125 9.50888C27.9415 9.49084 27.9705 9.4734 27.9999 9.45642C27.5333 9.49794 27.0389 9.64342 26.4379 9.91291Z" fill="#FE753F"/>
</svg>
